<?xml version="1.0" standalone="no"?>
<svg xmlns="http://www.w3.org/2000/svg" width="24" height="24"><rect width="24" height="24" opacity="0"></rect><g><path d="M16.18 8.81Q15.96 8.47 15.62 8.36Q15.29 8.26 14.98 8.41Q14.66 8.57 14.54 8.93L13.78 11.04L14.69 13.25L15.36 11.45L16.32 13.87L14.93 13.87L15.53 15.41L16.94 15.41L17.83 17.54Q17.98 17.9 18.3 18.04Q18.62 18.17 18.98 18.05Q19.32 17.9 19.46 17.52Q19.61 17.14 19.46 16.78L16.18 8.81ZM13.37 12.77Q11.62 8.57 10.68 6.36Q10.56 6.05 10.25 5.83Q9.94 5.62 9.6 5.66Q9.34 5.69 9.11 5.84Q8.88 6 8.76 6.29L4.42 16.66Q4.25 17.06 4.42 17.47Q4.58 17.88 5.02 18.05Q5.47 18.17 5.81 18.02Q6.14 17.88 6.34 17.47L7.46 14.69L11.95 14.69L13.08 17.47Q13.25 17.86 13.6 18.01Q13.94 18.17 14.42 18.05Q14.81 17.88 14.99 17.48Q15.17 17.09 15 16.68ZM9.72 9.38L11.06 12.6L8.35 12.6Z" fill="rgba(255,103,103,1)"></path><path d="M19.01 22.51Q19.94 22.51 20.75 22.03Q21.55 21.55 22.03 20.75Q22.51 19.94 22.51 19.01L22.51 4.99Q22.51 4.06 22.03 3.25Q21.55 2.45 20.75 1.97Q19.94 1.49 19.01 1.49L4.99 1.49Q4.06 1.49 3.25 1.97Q2.45 2.45 1.97 3.25Q1.49 4.06 1.49 4.99L1.49 19.01Q1.49 19.94 1.97 20.75Q2.45 21.55 3.25 22.03Q4.06 22.51 4.99 22.51L19.01 22.51ZM19.01 4.01Q19.46 4.01 19.73 4.27Q19.99 4.54 19.99 4.99L19.99 19.01Q19.99 19.46 19.73 19.73Q19.46 19.99 19.01 19.99L4.99 19.99Q4.54 19.99 4.27 19.73Q4.01 19.46 4.01 19.01L4.01 4.99Q4.01 4.54 4.27 4.27Q4.54 4.01 4.99 4.01L19.01 4.01Z" fill="rgba(255,103,103,1)"></path></g></svg>